<svg width="28" height="23" viewBox="0 0 28 23" fill="none" xmlns="http://www.w3.org/2000/svg">
<path d="M10.5833 8.59961H10.5958M18.0833 8.59961H18.0958M10.0022 13.5996C10.8667 15.0941 12.4826 16.0996 14.3333 16.0996C16.184 16.0996 17.7999 15.0941 18.6644 13.5996M14.3333 21.0996C18.9929 21.0996 22.9081 17.9127 24.0183 13.5996H24.3333C25.714 13.5996 26.8333 12.4804 26.8333 11.0996C26.8333 9.71886 25.714 8.59961 24.3333 8.59961H24.0183C22.9081 4.28655 18.9929 1.09961 14.3333 1.09961C9.67365 1.09961 5.7584 4.28655 4.6483 8.59961H4.33325C2.95254 8.59961 1.83325 9.71886 1.83325 11.0996C1.83325 12.4804 2.95254 13.5996 4.33325 13.5996H4.6483C5.7584 17.9127 9.67365 21.0996 14.3333 21.0996Z" stroke="#838383" stroke-width="2" stroke-linecap="round" stroke-linejoin="round"/>
</svg>
