<svg width="28" height="23" viewBox="0 0 28 23" fill="none" xmlns="http://www.w3.org/2000/svg">
<path d="M10.5833 8.59961H10.5958M18.0833 8.59961H18.0958M10.0023 13.5996C10.8668 15.0941 12.4827 16.0996 14.3333 16.0996C16.1841 16.0996 17.7999 15.0941 18.6644 13.5996M14.3333 21.0996C18.9929 21.0996 22.9082 17.9127 24.0183 13.5996H24.3333C25.7141 13.5996 26.8333 12.4804 26.8333 11.0996C26.8333 9.71886 25.7141 8.59961 24.3333 8.59961H24.0183C22.9082 4.28655 18.9929 1.09961 14.3333 1.09961C9.67371 1.09961 5.75846 4.28655 4.64836 8.59961H4.33331C2.9526 8.59961 1.83331 9.71886 1.83331 11.0996C1.83331 12.4804 2.9526 13.5996 4.33331 13.5996H4.64836C5.75846 17.9127 9.67371 21.0996 14.3333 21.0996Z" stroke="white" stroke-width="2" stroke-linecap="round" stroke-linejoin="round"/>
</svg>
