<svg width="31" height="30" viewBox="0 0 31 30" fill="none" xmlns="http://www.w3.org/2000/svg">
<path d="M18.5352 21.0822H12.431C11.9305 21.0822 11.5154 20.6671 11.5154 20.1666C11.5154 19.6661 11.9305 19.251 12.431 19.251H18.5352C19.0357 19.251 19.4508 19.6661 19.4508 20.1666C19.4508 20.6671 19.0357 21.0822 18.5352 21.0822Z" fill="white"/>
<path d="M7.18164 13.4029C6.94969 13.4029 6.71773 13.3052 6.5346 13.1343C6.27823 12.8779 6.19277 12.4751 6.33927 12.1332L8.61002 6.71274C8.65885 6.60286 8.68327 6.52961 8.71989 6.46857C10.5267 2.30553 12.8341 1.29224 16.9117 2.8549C17.1436 2.94036 17.3268 3.12349 17.4244 3.35545C17.5221 3.5874 17.5221 3.84378 17.4244 4.07574L13.8474 12.3774C13.7009 12.707 13.3713 12.9268 13.005 12.9268H9.52564C8.82977 12.9268 8.17052 13.0611 7.53569 13.3297C7.42581 13.3785 7.30373 13.4029 7.18164 13.4029ZM13.7864 3.99028C12.2725 3.99028 11.3447 4.97915 10.3802 7.22549C10.368 7.26211 10.3436 7.29874 10.3314 7.33536L8.7321 11.1322C9.00069 11.1077 9.25706 11.0955 9.52564 11.0955H12.3946L15.3368 4.25886C14.763 4.07574 14.2503 3.99028 13.7864 3.99028Z" fill="white"/>
<path d="M23.1625 13.171C23.077 13.171 22.9793 13.1588 22.8939 13.1344C22.4422 13.0001 21.9416 12.9269 21.4289 12.9269H13.0051C12.6999 12.9269 12.4069 12.7682 12.236 12.5118C12.0773 12.2554 12.0407 11.9258 12.1628 11.645L15.7032 3.4288C15.8863 2.9893 16.4113 2.6963 16.8752 2.8428C17.0217 2.89163 17.156 2.95267 17.3025 3.01371L20.1836 4.22234C21.8684 4.91821 22.9915 5.65071 23.724 6.52971C23.8705 6.70063 23.9926 6.88375 24.1025 7.06688C24.2368 7.27442 24.3589 7.5308 24.4443 7.78717C24.481 7.87263 24.542 8.03134 24.5786 8.20225C24.9205 9.34984 24.7495 10.7782 24.017 12.6095C23.8705 12.9513 23.5287 13.171 23.1625 13.171ZM14.3969 11.0956H21.4411C21.8318 11.0956 22.2102 11.1323 22.5887 11.1933C22.9305 10.1312 23.0038 9.31321 22.8084 8.65396C22.784 8.54409 22.7596 8.49525 22.7474 8.44642C22.6741 8.25109 22.6253 8.14121 22.5643 8.04355C22.4788 7.90926 22.4178 7.79938 22.3201 7.68951C21.7951 7.05467 20.8673 6.46867 19.4878 5.90709L17.0705 4.8938L14.3969 11.0956Z" fill="white"/>
<path d="M20.2443 28.4071H10.7218C10.38 28.4071 10.0626 28.3827 9.74514 28.3461C5.46002 28.0531 3.01835 25.6114 2.72535 21.2775C2.68872 21.0089 2.66431 20.6792 2.66431 20.3496V17.969C2.66431 15.2221 4.30022 12.7438 6.82735 11.6451C7.68193 11.2788 8.59756 11.0957 9.5376 11.0957H21.4529C22.1488 11.0957 22.8203 11.1934 23.4429 11.3887C26.3118 12.2555 28.3262 14.9657 28.3262 17.969V20.3496C28.3262 20.6182 28.314 20.8746 28.3018 21.1187C28.0332 25.8922 25.2497 28.4071 20.2443 28.4071ZM9.52539 12.927C8.82951 12.927 8.17026 13.0612 7.53543 13.3298C5.67976 14.1356 4.48335 15.9546 4.48335 17.969V20.3496C4.48335 20.606 4.50776 20.8624 4.53218 21.1065C4.76414 24.5859 6.47331 26.2951 9.90385 26.527C10.2091 26.5637 10.4532 26.5881 10.7096 26.5881H20.2321C24.2608 26.5881 26.2386 24.8179 26.4339 21.0333C26.4461 20.8135 26.4583 20.5938 26.4583 20.3496V17.969C26.4583 15.7593 24.9811 13.7815 22.8813 13.1345C22.4296 13.0002 21.9291 12.927 21.4163 12.927H9.52539Z" fill="white"/>
<path d="M3.56797 18.8845C3.06743 18.8845 2.65234 18.4694 2.65234 17.9689V14.3918C2.65234 10.5462 5.3748 7.22553 9.13497 6.49303C9.46459 6.43199 9.80643 6.55407 10.0262 6.81045C10.2337 7.06682 10.2948 7.43308 10.1605 7.73828L8.02401 12.8414C7.92634 13.0611 7.75543 13.232 7.54789 13.3297C5.69222 14.1354 4.4958 15.9545 4.4958 17.9689C4.48359 18.4694 4.08072 18.8845 3.56797 18.8845ZM7.66997 8.95912C6.1073 9.83812 4.97193 11.3764 4.61789 13.171C5.15505 12.6216 5.77768 12.1577 6.48576 11.8159L7.66997 8.95912Z" fill="white"/>
<path d="M27.3986 18.8846C26.898 18.8846 26.4829 18.4695 26.4829 17.969C26.4829 15.7593 25.0057 13.7815 22.9059 13.1345C22.6617 13.0612 22.4542 12.8903 22.3443 12.6583C22.2344 12.4264 22.2222 12.1578 22.3199 11.9258C22.8937 10.4975 23.0402 9.45975 22.8082 8.654C22.7838 8.54413 22.7594 8.49529 22.7472 8.44646C22.5885 8.09242 22.6739 7.67734 22.9547 7.40875C23.2355 7.14017 23.6628 7.07913 24.0046 7.26225C26.6661 8.654 28.3142 11.3887 28.3142 14.3919V17.969C28.3142 18.4695 27.8991 18.8846 27.3986 18.8846ZM24.3343 11.7305C25.1034 12.0845 25.7871 12.5851 26.3608 13.1833C26.1289 11.9869 25.5551 10.9003 24.7127 10.0458C24.6517 10.5585 24.5296 11.1201 24.3343 11.7305Z" fill="white"/>
</svg>
