<svg width="31" height="30" viewBox="0 0 31 30" fill="none" xmlns="http://www.w3.org/2000/svg">
<path d="M18.5352 21.0822H12.4311C11.9305 21.0822 11.5154 20.6671 11.5154 20.1666C11.5154 19.6661 11.9305 19.251 12.4311 19.251H18.5352C19.0358 19.251 19.4509 19.6661 19.4509 20.1666C19.4509 20.6671 19.0358 21.0822 18.5352 21.0822Z" fill="#969696"/>
<path d="M7.18171 13.4029C6.94975 13.4029 6.71779 13.3052 6.53466 13.1343C6.27829 12.8779 6.19283 12.4751 6.33933 12.1332L8.61008 6.71274C8.65891 6.60286 8.68333 6.52961 8.71996 6.46857C10.5268 2.30553 12.8342 1.29224 16.9117 2.8549C17.1437 2.94036 17.3268 3.12349 17.4245 3.35545C17.5222 3.5874 17.5222 3.84378 17.4245 4.07574L13.8475 12.3774C13.701 12.707 13.3713 12.9268 13.0051 12.9268H9.52571C8.82983 12.9268 8.17058 13.0611 7.53575 13.3297C7.42587 13.3785 7.30379 13.4029 7.18171 13.4029ZM13.7864 3.99028C12.2726 3.99028 11.3447 4.97915 10.3803 7.22549C10.3681 7.26211 10.3437 7.29874 10.3315 7.33536L8.73216 11.1322C9.00075 11.1077 9.25712 11.0955 9.52571 11.0955H12.3947L15.3369 4.25886C14.7631 4.07574 14.2503 3.99028 13.7864 3.99028Z" fill="#969696"/>
<path d="M23.1625 13.171C23.077 13.171 22.9793 13.1588 22.8939 13.1344C22.4422 13.0001 21.9416 12.9269 21.4289 12.9269H13.0051C12.6999 12.9269 12.4069 12.7682 12.236 12.5118C12.0773 12.2554 12.0407 11.9258 12.1628 11.645L15.7032 3.4288C15.8863 2.9893 16.4113 2.6963 16.8752 2.8428C17.0217 2.89163 17.156 2.95267 17.3025 3.01371L20.1836 4.22234C21.8684 4.91821 22.9915 5.65071 23.724 6.52971C23.8705 6.70063 23.9926 6.88375 24.1025 7.06688C24.2368 7.27442 24.3589 7.5308 24.4443 7.78717C24.481 7.87263 24.542 8.03134 24.5786 8.20225C24.9205 9.34984 24.7495 10.7782 24.017 12.6095C23.8705 12.9513 23.5287 13.171 23.1625 13.171ZM14.3969 11.0956H21.4411C21.8318 11.0956 22.2102 11.1323 22.5887 11.1933C22.9305 10.1312 23.0038 9.31321 22.8084 8.65396C22.784 8.54409 22.7596 8.49525 22.7474 8.44642C22.6741 8.25109 22.6253 8.14121 22.5643 8.04355C22.4788 7.90926 22.4178 7.79938 22.3201 7.68951C21.7951 7.05467 20.8673 6.46867 19.4878 5.90709L17.0705 4.8938L14.3969 11.0956Z" fill="#969696"/>
<path d="M20.2444 28.4071H10.7219C10.3801 28.4071 10.0627 28.3827 9.74526 28.3461C5.46014 28.0531 3.01847 25.6114 2.72547 21.2775C2.68885 21.0089 2.66443 20.6792 2.66443 20.3496V17.969C2.66443 15.2221 4.30035 12.7438 6.82747 11.6451C7.68205 11.2788 8.59768 11.0957 9.53772 11.0957H21.4531C22.1489 11.0957 22.8204 11.1934 23.443 11.3887C26.312 12.2555 28.3263 14.9657 28.3263 17.969V20.3496C28.3263 20.6182 28.3141 20.8746 28.3019 21.1187C28.0333 25.8922 25.2498 28.4071 20.2444 28.4071ZM9.52551 12.927C8.82964 12.927 8.17039 13.0612 7.53555 13.3298C5.67989 14.1356 4.48347 15.9546 4.48347 17.969V20.3496C4.48347 20.606 4.50789 20.8624 4.5323 21.1065C4.76426 24.5859 6.47343 26.2951 9.90397 26.527C10.2092 26.5637 10.4533 26.5881 10.7097 26.5881H20.2322C24.261 26.5881 26.2387 24.8179 26.4341 21.0333C26.4463 20.8135 26.4585 20.5938 26.4585 20.3496V17.969C26.4585 15.7593 24.9813 13.7815 22.8814 13.1345C22.4297 13.0002 21.9292 12.927 21.4164 12.927H9.52551Z" fill="#969696"/>
<path d="M3.56809 18.8845C3.06755 18.8845 2.65247 18.4694 2.65247 17.9689V14.3918C2.65247 10.5462 5.37492 7.22553 9.13509 6.49303C9.46472 6.43199 9.80655 6.55407 10.0263 6.81045C10.2338 7.06682 10.2949 7.43308 10.1606 7.73828L8.02413 12.8414C7.92647 13.0611 7.75555 13.232 7.54801 13.3297C5.69234 14.1354 4.49592 15.9545 4.49592 17.9689C4.48372 18.4694 4.08084 18.8845 3.56809 18.8845ZM7.67009 8.95912C6.10742 9.83812 4.97205 11.3764 4.61801 13.171C5.15517 12.6216 5.7778 12.1577 6.48588 11.8159L7.67009 8.95912Z" fill="#969696"/>
<path d="M27.3987 18.8846C26.8981 18.8846 26.4831 18.4695 26.4831 17.969C26.4831 15.7593 25.0058 13.7815 22.906 13.1345C22.6618 13.0612 22.4543 12.8903 22.3444 12.6583C22.2346 12.4264 22.2223 12.1578 22.32 11.9258C22.8938 10.4975 23.0403 9.45975 22.8083 8.654C22.7839 8.54413 22.7595 8.49529 22.7473 8.44646C22.5886 8.09242 22.6741 7.67734 22.9548 7.40875C23.2356 7.14017 23.6629 7.07913 24.0048 7.26225C26.6662 8.654 28.3143 11.3887 28.3143 14.3919V17.969C28.3143 18.4695 27.8992 18.8846 27.3987 18.8846ZM24.3344 11.7305C25.1035 12.0845 25.7872 12.5851 26.361 13.1833C26.129 11.9869 25.5552 10.9003 24.7128 10.0458C24.6518 10.5585 24.5297 11.1201 24.3344 11.7305Z" fill="#969696"/>
</svg>
