<svg width="45" height="62" viewBox="0 0 45 62" fill="none" xmlns="http://www.w3.org/2000/svg">
<path d="M27.114 19.4152C25.5304 19.0945 24.853 21.5206 26.4425 21.8413C34.3337 23.433 41.6663 29.5442 42.4121 37.841C41.779 37.8471 41.1463 37.8054 40.5195 37.7163C38.2459 37.3943 36.1212 36.3981 34.4199 34.8567C33.6451 33.5105 32.6749 32.2867 31.5409 31.225C28.5877 28.5079 24.8798 26.7558 21.5165 24.6148C17.9898 22.3669 14.7543 19.5429 13.7115 15.3292C12.8202 11.7658 13.5748 8.08061 16.9797 6.23061C17.8932 5.71948 18.8971 5.38975 19.9359 5.25958C20.6758 5.21653 21.4182 5.2644 22.1464 5.40211C24.957 5.9396 27.5002 7.86087 27.9667 10.8126C28.2059 12.7177 27.819 14.6488 26.8644 16.3151C26.0622 17.7256 28.2371 18.9876 29.0393 17.586C31.0626 14.0226 31.1814 9.34859 28.445 6.1534C27.7661 5.37456 26.963 4.71333 26.0682 4.19649L28.2697 1.09633C28.8343 0.300499 27.524 -0.453756 26.9654 0.333163L24.7045 3.52539C23.0242 2.83219 21.1943 2.58069 19.3892 2.79489C18.8374 2.86808 18.2935 2.99133 17.764 3.16311L15.7467 0.333163C15.203 -0.453756 13.8898 0.297529 14.4543 1.09633L16.3409 3.73622C15.5775 4.10251 14.8579 4.55376 14.1958 5.08141C11.0821 7.57282 10.3988 11.5223 11.1237 15.2728C11.4963 17.2496 12.3019 19.1195 13.4827 20.7485C6.04019 23.8665 0.10993 30.6608 0 39.0259C0.00535666 39.3581 0.139798 39.6753 0.374893 39.9102C0.609988 40.1452 0.927303 40.2796 1.25973 40.2849C3.78109 40.3337 6.29504 39.9962 8.71415 39.2842C10.268 38.8328 9.60548 36.4008 8.04566 36.8551C6.27027 37.3722 4.4385 37.6714 2.59077 37.746C3.26818 30.7528 8.73198 25.1612 15.2 22.7619C18.8663 26.4292 24.1608 28.6949 28.3589 31.8396C29.1495 32.4318 29.8773 33.1035 30.5307 33.8441H24.7728C23.4774 33.8441 23.4744 35.8574 24.7728 35.8574H32.04L32.1292 35.9999C32.1772 36.1266 32.2465 36.2441 32.3342 36.3474C32.7977 37.1519 33.1828 37.9992 33.484 38.8774H18.0493C16.7509 38.8774 16.7509 40.8907 18.0493 40.8907H34.0069C34.2193 42.0533 34.2643 43.2402 34.1406 44.4155H20.9877C19.6923 44.4155 19.6893 46.4288 20.9877 46.4288H33.7365C33.4173 47.4958 32.9492 48.5125 32.3461 49.4488H24.7728C23.4774 49.4488 23.4744 51.4622 24.7728 51.4622H30.7149C29.3379 52.8521 27.5914 53.8186 25.6819 54.2476C21.0768 55.2305 15.7051 52.9202 13.5006 48.748C11.3643 44.6917 12.3121 39.8395 14.8435 36.2108C15.7734 34.8804 13.5897 33.6214 12.6687 34.9428C8.05755 41.5529 9.0588 51.4503 16.7509 55.2899C17.6801 55.7535 18.6535 56.1226 19.6566 56.3915C20.845 57.1963 22.7109 58.8384 22.9902 61.4189H23.1744C23.4239 59.1146 24.9303 57.5586 26.1038 56.6677C27.2663 56.4479 28.3891 56.0544 29.4344 55.5007C33.4186 53.3686 36.1074 49.2172 36.6214 44.76C36.8294 42.8169 36.6671 40.8521 36.1431 38.9694C38.608 40.153 41.3653 40.5907 44.0759 40.2285C44.6077 40.1543 45.0088 39.5158 44.9999 39.014C44.8632 29.0543 36.4848 21.3038 27.114 19.4152Z" fill="#FFCF01"/>
</svg>
