<svg width="85" height="117" viewBox="0 0 85 117" fill="none" xmlns="http://www.w3.org/2000/svg">
<g clip-path="url(#clip0_2150_2536)">
<path d="M51.2153 36.6732C48.2241 36.0674 46.9446 40.65 49.947 41.2558C64.8525 44.2623 78.703 55.8057 80.1116 71.4775C78.9158 71.489 77.7208 71.4102 76.5368 71.2419C72.2422 70.6336 68.2289 68.752 65.0153 65.8404C63.5518 63.2977 61.7192 60.9859 59.5773 58.9805C53.9989 53.8482 46.9951 50.5388 40.6423 46.4947C33.9808 42.2486 27.8693 36.9144 25.8995 28.9551C24.2159 22.2242 25.6413 15.2634 32.0727 11.7689C33.7983 10.8035 35.6945 10.1806 37.6567 9.93476C39.0542 9.85345 40.4565 9.94387 41.832 10.204C47.141 11.2192 51.9449 14.8483 52.826 20.4237C53.2777 24.0222 52.547 27.67 50.7439 30.8173C49.2287 33.4816 53.3367 35.8655 54.8519 33.218C58.6737 26.4871 58.8982 17.6584 53.7295 11.6231C52.4472 10.1519 50.9301 8.90296 49.2399 7.92671L53.3984 2.07084C54.4647 0.567609 51.9898 -0.857095 50.9347 0.629309L46.664 6.65906C43.4902 5.34968 40.0337 4.87464 36.6241 5.27923C35.5818 5.41749 34.5543 5.65029 33.5543 5.97475L29.7437 0.629309C28.7167 -0.857095 26.2362 0.562 27.3025 2.07084L30.8661 7.0573C29.4241 7.74918 28.0649 8.60154 26.8143 9.59821C20.9328 14.3042 19.6421 21.7643 21.0114 28.8485C21.7152 32.5826 23.2369 36.1147 25.4674 39.1917C11.4092 45.0812 0.207645 57.9148 0 73.7155C0.0101181 74.3431 0.264063 74.9422 0.708131 75.386C1.1522 75.8298 1.75157 76.0836 2.3795 76.0938C7.14205 76.1859 11.8906 75.5484 16.4601 74.2035C19.3952 73.3509 18.1437 68.7571 15.1974 69.6153C11.8438 70.592 8.38384 71.1571 4.89369 71.298C6.17323 58.0886 16.4937 47.5268 28.7111 42.9946C35.6364 49.9218 45.637 54.2015 53.5668 60.1416C55.0602 61.2601 56.4348 62.5287 57.6692 63.9277H46.7931C44.3462 63.9277 44.3406 67.7306 46.7931 67.7306H60.5201L60.6884 67.9999C60.7791 68.2391 60.9101 68.461 61.0757 68.6561C61.9512 70.1758 62.6785 71.7762 63.2475 73.4351H34.093C31.6406 73.4351 31.6406 77.238 34.093 77.238H64.2352C64.6365 79.434 64.7215 81.676 64.4878 83.896H39.6433C37.1965 83.896 37.1909 87.6989 39.6433 87.6989H63.7245C63.1216 89.7143 62.2374 91.6347 61.0981 93.4034H46.7931C44.3462 93.4034 44.3406 97.2063 46.7931 97.2063H58.0171C55.4161 99.8317 52.117 101.657 48.5103 102.468C39.8117 104.324 29.6652 99.9604 25.501 92.0796C21.466 84.4176 23.2562 75.2524 28.0377 68.3981C29.7942 65.8852 25.6694 63.507 23.9297 66.003C15.2198 78.4888 17.1111 97.1839 31.6406 104.436C33.3957 105.312 35.2345 106.009 37.1292 106.517C39.374 108.037 42.8983 111.139 43.4258 116.014H43.7738C44.2452 111.661 47.0905 108.722 49.3072 107.039C51.503 106.624 53.6238 105.881 55.5983 104.835C63.124 100.807 68.2029 92.9658 69.1738 84.5466C69.5667 80.8764 69.2601 77.165 68.2703 73.6089C72.9262 75.8446 78.1345 76.6713 83.2544 75.9872C84.2589 75.847 85.0166 74.641 84.9997 73.6931C84.7416 54.8802 68.9157 40.2406 51.2153 36.6732Z" fill="black"/>
</g>
<defs>
<clipPath id="clip0_2150_2536">
<rect width="85" height="116.014" fill="white"/>
</clipPath>
</defs>
</svg>
