<svg width="175" height="66" viewBox="0 0 175 66" fill="none" xmlns="http://www.w3.org/2000/svg">
<path d="M59.3931 47.0014C58.7315 47.0014 58.2202 46.8087 57.8594 46.4234C57.4939 46.0332 57.3111 45.4751 57.3111 44.749V32.7905H55.7913C55.2638 32.7905 54.8567 32.6448 54.5698 32.3534C54.2876 32.057 54.1465 31.652 54.1465 31.1382C54.1465 30.5949 54.2876 30.1825 54.5698 29.9009C54.8567 29.6194 55.2638 29.4786 55.7913 29.4786H58.5048L57.3111 30.6418V29.4415C57.3111 27.0212 57.8848 25.2059 59.0322 23.9958C60.175 22.7856 61.8267 22.0743 63.9873 21.8619L65.1047 21.7582C65.5488 21.7088 65.9028 21.7854 66.1665 21.9879C66.4302 22.1855 66.606 22.4448 66.6939 22.7658C66.7818 23.082 66.7934 23.403 66.7286 23.729C66.6592 24.06 66.5204 24.3489 66.3122 24.5959C66.104 24.8429 65.8357 24.9787 65.5072 25.0034L65.0422 25.0331C63.7884 25.1319 62.8746 25.4727 62.3009 26.0555C61.7272 26.6433 61.4404 27.5374 61.4404 28.7377V30.0417L60.9129 29.4786H64.2511C64.7785 29.4786 65.1856 29.6194 65.4725 29.9009C65.7593 30.1825 65.9028 30.5949 65.9028 31.1382C65.9028 31.652 65.7593 32.057 65.4725 32.3534C65.1856 32.6448 64.7785 32.7905 64.2511 32.7905H61.4404V44.749C61.4404 46.2506 60.7579 47.0014 59.3931 47.0014ZM71.6143 46.9643C70.9527 46.9643 70.4461 46.7544 70.0945 46.3345C69.7429 45.9097 69.5671 45.3219 69.5671 44.5711V31.6273C69.5671 30.8518 69.7429 30.259 70.0945 29.849C70.4461 29.4391 70.9527 29.2341 71.6143 29.2341C72.276 29.2341 72.7872 29.4391 73.1481 29.849C73.5136 30.259 73.6963 30.8518 73.6963 31.6273V44.5711C73.6963 45.3219 73.5205 45.9097 73.1689 46.3345C72.8126 46.7544 72.2945 46.9643 71.6143 46.9643ZM71.6143 25.9518C70.8417 25.9518 70.2426 25.7468 69.8169 25.3368C69.3866 24.9269 69.1715 24.3564 69.1715 23.6253C69.1715 22.8745 69.3866 22.2991 69.8169 21.899C70.2426 21.4989 70.8417 21.2988 71.6143 21.2988C72.4055 21.2988 73.0116 21.4989 73.4326 21.899C73.849 22.2991 74.0572 22.8745 74.0572 23.6253C74.0572 24.3564 73.849 24.9269 73.4326 25.3368C73.0116 25.7468 72.4055 25.9518 71.6143 25.9518ZM81.358 47.0014C80.6964 47.0014 80.1898 46.8087 79.8382 46.4234C79.4866 46.0332 79.3108 45.4751 79.3108 44.749V31.4198C79.3108 30.6888 79.4866 30.1355 79.8382 29.7601C80.1898 29.3847 80.6849 29.197 81.3233 29.197C81.9618 29.197 82.4569 29.3847 82.8085 29.7601C83.1601 30.1355 83.3359 30.6888 83.3359 31.4198V33.813L82.9751 32.9313C83.4609 31.6865 84.215 30.7406 85.2375 30.0936C86.26 29.4465 87.4212 29.1229 88.7213 29.1229C90.0214 29.1229 91.0902 29.3823 91.9276 29.9009C92.7604 30.4196 93.3873 31.2025 93.8083 32.2496C94.2247 33.2919 94.4329 34.6132 94.4329 36.2136V44.749C94.4329 45.4751 94.2571 46.0332 93.9055 46.4234C93.5539 46.8087 93.0472 47.0014 92.3856 47.0014C91.724 47.0014 91.2128 46.8087 90.8519 46.4234C90.4864 46.0332 90.3036 45.4751 90.3036 44.749V36.4284C90.3036 35.0849 90.0677 34.1093 89.5958 33.5018C89.1239 32.8893 88.3928 32.583 87.4027 32.583C86.1906 32.583 85.2259 32.9881 84.5088 33.7982C83.7963 34.6082 83.44 35.6826 83.44 37.0212V44.749C83.44 46.2506 82.746 47.0014 81.358 47.0014ZM105.266 47.0754C104.1 47.0754 103.059 46.8334 102.143 46.3493C101.232 45.8702 100.517 45.2182 99.9988 44.3933C99.4806 43.5684 99.2215 42.6398 99.2215 41.6075C99.2215 40.338 99.5315 39.3328 100.151 38.5919C100.767 37.851 101.768 37.3175 103.156 36.9915C104.54 36.6606 106.4 36.4951 108.736 36.4951H110.388V39.0365H108.771C107.406 39.0365 106.314 39.1056 105.495 39.2439C104.681 39.3872 104.105 39.6292 103.767 39.97C103.425 40.3108 103.254 40.7875 103.254 41.4C103.254 42.1755 103.506 42.8102 104.01 43.3042C104.519 43.7932 105.225 44.0377 106.127 44.0377C106.853 44.0377 107.496 43.8574 108.056 43.4968C108.62 43.1313 109.067 42.6299 109.395 41.9927C109.724 41.3605 109.888 40.6319 109.888 39.807V35.7542C109.888 34.5786 109.648 33.7339 109.166 33.2202C108.681 32.7016 107.866 32.4423 106.724 32.4423C106.085 32.4423 105.396 32.5238 104.655 32.6868C103.92 32.8498 103.145 33.1313 102.331 33.5314C101.91 33.7438 101.539 33.8031 101.22 33.7092C100.901 33.6154 100.653 33.4228 100.478 33.1313C100.302 32.835 100.214 32.5114 100.214 32.1607C100.214 31.8051 100.302 31.4568 100.478 31.116C100.653 30.7752 100.952 30.5233 101.373 30.3603C102.381 29.9157 103.355 29.5996 104.295 29.4119C105.229 29.2193 106.083 29.1229 106.855 29.1229C108.438 29.1229 109.74 29.3823 110.763 29.9009C111.79 30.4196 112.555 31.2025 113.06 32.2496C113.569 33.2919 113.823 34.6379 113.823 36.2876V44.749C113.823 45.4751 113.657 46.0332 113.323 46.4234C112.995 46.8087 112.523 47.0014 111.908 47.0014C111.288 47.0014 110.809 46.8087 110.471 46.4234C110.129 46.0332 109.958 45.4751 109.958 44.749V43.0522H110.221C110.069 43.8771 109.766 44.5884 109.312 45.1861C108.863 45.7838 108.297 46.2481 107.612 46.579C106.927 46.91 106.145 47.0754 105.266 47.0754ZM128.647 47.0754C127.282 47.0754 126.088 46.7099 125.066 45.9789C124.043 45.2528 123.366 44.2772 123.032 43.0522L123.4 42.1706V44.749C123.4 45.4751 123.224 46.0332 122.873 46.4234C122.517 46.8087 122.019 47.0014 121.381 47.0014C120.724 47.0014 120.219 46.8087 119.868 46.4234C119.512 46.0332 119.333 45.4751 119.333 44.749V23.8031C119.333 23.0721 119.512 22.5189 119.868 22.1435C120.219 21.7681 120.724 21.5804 121.381 21.5804C122.042 21.5804 122.556 21.7681 122.921 22.1435C123.282 22.5189 123.463 23.0721 123.463 23.8031V32.9683H123.067C123.419 31.8174 124.101 30.8888 125.114 30.1825C126.128 29.4761 127.305 29.1229 128.647 29.1229C130.081 29.1229 131.326 29.4885 132.381 30.2195C133.44 30.9506 134.266 31.978 134.858 33.3017C135.45 34.6305 135.746 36.2234 135.746 38.0807C135.746 39.9132 135.45 41.5062 134.858 42.8596C134.266 44.213 133.435 45.2528 132.367 45.9789C131.298 46.7099 130.058 47.0754 128.647 47.0754ZM127.495 43.7265C128.309 43.7265 129.024 43.5141 129.639 43.0893C130.255 42.6645 130.734 42.0347 131.076 41.1999C131.418 40.3652 131.589 39.3254 131.589 38.0807C131.589 36.2037 131.215 34.8009 130.465 33.8722C129.716 32.9436 128.726 32.4793 127.495 32.4793C126.681 32.4793 125.963 32.6843 125.343 33.0943C124.728 33.5043 124.249 34.1266 123.907 34.9614C123.569 35.7962 123.4 36.8359 123.4 38.0807C123.4 39.9379 123.773 41.3432 124.518 42.2965C125.267 43.2498 126.26 43.7265 127.495 43.7265ZM148.433 47.0754C146.605 47.0754 145.03 46.7099 143.707 45.9789C142.388 45.2528 141.37 44.218 140.653 42.8744C139.936 41.5358 139.577 39.9503 139.577 38.1177C139.577 36.3296 139.924 34.7663 140.618 33.4277C141.312 32.0891 142.27 31.037 143.491 30.2714C144.718 29.5058 146.11 29.1229 147.669 29.1229C148.817 29.1229 149.846 29.323 150.758 29.7231C151.674 30.1232 152.456 30.7011 153.103 31.4568C153.756 32.2076 154.251 33.1165 154.588 34.1834C154.931 35.2553 155.102 36.4605 155.102 37.7991C155.102 38.2239 154.966 38.5475 154.693 38.7697C154.415 38.992 154.024 39.1031 153.52 39.1031H142.915V36.5692H152.194L151.667 37.0952C151.667 36.0135 151.519 35.1096 151.223 34.3835C150.926 33.6524 150.496 33.0943 149.932 32.709C149.372 32.3188 148.673 32.1237 147.836 32.1237C146.911 32.1237 146.124 32.3534 145.476 32.8127C144.829 33.2721 144.333 33.9192 143.991 34.7539C143.649 35.5838 143.478 36.5766 143.478 37.7324V37.9769C143.478 39.9033 143.901 41.3432 144.748 42.2965C145.594 43.2498 146.843 43.7265 148.495 43.7265C149.069 43.7265 149.714 43.6499 150.431 43.4968C151.144 43.3437 151.819 43.0794 152.458 42.704C152.921 42.4225 153.33 42.299 153.686 42.3336C154.038 42.3681 154.318 42.5015 154.526 42.7337C154.734 42.9707 154.861 43.2597 154.908 43.6005C154.949 43.9414 154.887 44.2871 154.72 44.6378C154.558 44.9935 154.278 45.2997 153.881 45.5566C153.108 46.0752 152.222 46.458 151.223 46.705C150.219 46.952 149.289 47.0754 148.433 47.0754ZM167.649 47.0754C165.822 47.0754 164.249 46.7099 162.93 45.9789C161.607 45.2528 160.589 44.218 159.877 42.8744C159.16 41.5358 158.801 39.9503 158.801 38.1177C158.801 36.3296 159.148 34.7663 159.842 33.4277C160.536 32.0891 161.494 31.037 162.715 30.2714C163.937 29.5058 165.329 29.1229 166.893 29.1229C168.036 29.1229 169.065 29.323 169.981 29.7231C170.893 30.1232 171.675 30.7011 172.327 31.4568C172.975 32.2076 173.47 33.1165 173.812 34.1834C174.154 35.2553 174.326 36.4605 174.326 37.7991C174.326 38.2239 174.187 38.5475 173.909 38.7697C173.636 38.992 173.245 39.1031 172.736 39.1031H162.139V36.5692H171.418L170.89 37.0952C170.89 36.0135 170.742 35.1096 170.446 34.3835C170.145 33.6524 169.715 33.0943 169.155 32.709C168.596 32.3188 167.897 32.1237 167.06 32.1237C166.134 32.1237 165.348 32.3534 164.7 32.8127C164.048 33.2721 163.55 33.9192 163.208 34.7539C162.87 35.5838 162.701 36.5766 162.701 37.7324V37.9769C162.701 39.9033 163.125 41.3432 163.971 42.2965C164.818 43.2498 166.067 43.7265 167.719 43.7265C168.293 43.7265 168.936 43.6499 169.648 43.4968C170.365 43.3437 171.043 43.0794 171.682 42.704C172.144 42.4225 172.551 42.299 172.903 42.3336C173.255 42.3681 173.535 42.5015 173.743 42.7337C173.956 42.9707 174.083 43.2597 174.124 43.6005C174.171 43.9414 174.111 44.2871 173.944 44.6378C173.777 44.9935 173.497 45.2997 173.104 45.5566C172.332 46.0752 171.446 46.458 170.446 46.705C169.442 46.952 168.51 47.0754 167.649 47.0754Z" fill="#FFCF01"/>
<path d="M27.2204 20.676C25.6345 20.3346 24.956 22.9176 26.5479 23.259C34.4509 24.9536 41.7944 31.4602 42.5413 40.2937C41.9073 40.3002 41.2737 40.2558 40.6459 40.1609C38.3689 39.818 36.241 38.7575 34.5372 37.1163C33.7612 35.6831 32.7896 34.3801 31.6539 33.2497C28.6963 30.3568 24.9828 28.4915 21.6145 26.212C18.0826 23.8186 14.8423 20.812 13.7979 16.3257C12.9052 12.5317 13.661 8.6082 17.0709 6.63853C17.9859 6.09433 18.9912 5.74327 20.0316 5.60468C20.7726 5.55886 21.5161 5.60982 22.2454 5.75644C25.0602 6.32869 27.6072 8.37424 28.0744 11.5169C28.3139 13.5452 27.9265 15.6013 26.9705 17.3753C26.1671 18.8771 28.3451 20.2207 29.1485 18.7285C31.1749 14.9346 31.2939 9.9582 28.5534 6.55632C27.8735 5.7271 27.0692 5.0231 26.173 4.47283L28.3779 1.17213C28.9432 0.32482 27.631 -0.478225 27.0716 0.359597L24.8073 3.75831C23.1245 3.02027 21.2919 2.75251 19.4841 2.98056C18.9315 3.05849 18.3867 3.18971 17.8565 3.3726L15.8361 0.359597C15.2916 -0.478225 13.9764 0.321658 14.5418 1.17213L16.4312 3.98279C15.6667 4.37277 14.946 4.85321 14.2829 5.41499C11.1646 8.06757 10.4802 12.2725 11.2062 16.2656C11.5794 18.3703 12.3862 20.3612 13.5688 22.0956C6.11513 25.4152 0.176012 32.649 0.065918 41.5552C0.0712826 41.9089 0.205925 42.2466 0.441371 42.4968C0.676817 42.7469 0.994606 42.89 1.32753 42.8957C3.85265 42.9477 6.37036 42.5883 8.79308 41.8302C10.3493 41.3497 9.68574 38.7603 8.12359 39.2441C6.34555 39.7946 4.51105 40.1131 2.66056 40.1925C3.33898 32.747 8.81094 26.7937 15.2886 24.2391C18.9604 28.1437 24.2628 30.556 28.4671 33.9041C29.259 34.5346 29.9878 35.2497 30.6422 36.0382H24.8757C23.5784 36.0382 23.5754 38.1818 24.8757 38.1818H32.1538L32.2431 38.3335C32.2912 38.4684 32.3606 38.5935 32.4484 38.7034C32.9126 39.56 33.2982 40.4621 33.5999 41.3971H18.1421C16.8418 41.3971 16.8418 43.5407 18.1421 43.5407H34.1236C34.3363 44.7784 34.3814 46.0422 34.2575 47.2935H21.0849C19.7876 47.2935 19.7846 49.437 21.0849 49.437H33.8528C33.5331 50.573 33.0643 51.6554 32.4603 52.6524H24.8757C23.5784 52.6524 23.5754 54.796 24.8757 54.796H30.8267C29.4476 56.2758 27.6985 57.3049 25.7862 57.7615C21.1742 58.808 15.7945 56.3483 13.5866 51.9063C11.4472 47.5875 12.3964 42.4215 14.9316 38.558C15.8629 37.1416 13.6759 35.8011 12.7535 37.208C8.1355 44.2457 9.13824 54.7833 16.8418 58.8712C17.7724 59.3649 18.7473 59.7578 19.7519 60.0442C20.9421 60.901 22.8107 62.6494 23.0904 65.3968H23.2749C23.5248 62.9434 25.0334 61.2867 26.2087 60.3382C27.3729 60.1041 28.4974 59.6853 29.5443 59.0957C33.5344 56.8257 36.2273 52.4058 36.742 47.6602C36.9504 45.5915 36.7878 43.4995 36.263 41.4951C38.7316 42.7553 41.493 43.2212 44.2076 42.8356C44.7402 42.7566 45.1419 42.0769 45.133 41.5425C44.9961 30.9386 36.6052 22.6868 27.2204 20.676Z" fill="#FFCF01"/>
</svg>
