<svg width="20" height="20" viewBox="0 0 20 20" fill="none" xmlns="http://www.w3.org/2000/svg">
<path d="M4.39058 6.2406L3.77808 6.87185L7.58589 10.439C7.58589 10.439 16.2812 8.45154 16.2812 8.37654C16.2812 8.30154 16.3187 6.96404 16.3187 6.96404C16.3187 6.96404 16.2031 6.81091 16.1265 6.72966C16.0499 6.64841 15.6437 6.28591 15.6437 6.28591L4.39058 6.2406Z" fill="#AC5811"/>
<path d="M6.13428 4.58599L6.34834 5.82817L12.9437 6.52661L15.2327 4.89692L11.1983 4.15942L6.13428 4.58599Z" fill="#8A460A"/>
<path d="M5.10315 6.75314C5.10315 6.75314 4.10783 6.53595 3.73752 6.06877C3.51877 5.7922 3.50627 5.3922 3.70471 5.02814C3.97658 4.53283 4.73752 4.30002 5.07815 4.2297C5.41877 4.15939 7.20315 3.54845 10.3391 3.6422C13.475 3.73595 16.5875 4.4297 16.5281 5.53283C16.4688 6.63595 15.1891 6.62502 15.1891 6.62502L15.0016 4.73439L13.2953 4.75314C13.2953 4.75314 11.4313 4.54845 10.1641 4.50002C8.6844 4.44533 7.61408 4.58127 7.61408 4.58127L5.5469 4.94533L5.10315 6.75314Z" fill="#E17F13"/>
<path d="M10.8813 5.95308C10.9282 5.90621 14.4048 2.35933 14.4048 2.35933C14.4048 2.35933 14.3548 1.8359 14.4173 1.57183C14.5235 1.12496 15.0157 0.526521 15.4392 0.562458C15.8626 0.598396 17.0485 1.86558 16.9892 2.20621C16.9298 2.54683 16.5782 2.94683 16.2251 3.07496C15.8735 3.20465 15.5095 3.16871 15.5095 3.16871L12.572 6.10621L10.8813 5.95308Z" fill="#AE5614"/>
<path d="M14.8047 2.31254C15.0657 2.37347 15.6626 1.86566 15.7329 1.74847C15.8032 1.63129 15.5563 1.45473 15.4751 1.25473C15.3938 1.05473 15.3922 0.890663 15.2282 0.9266C15.0641 0.962538 14.7829 1.27035 14.711 1.52504C14.6047 1.9016 14.6516 2.27816 14.8047 2.31254Z" fill="#DF8116"/>
<path d="M3.80929 6.82349C3.80929 6.82349 2.55617 8.13442 2.63117 10.0329C2.70773 11.9313 3.48585 14.1735 4.11242 15.3313C4.73898 16.4891 5.61242 18.161 5.9546 18.3891C6.29679 18.6172 7.31242 19.2969 9.69523 19.3391C12.5109 19.3891 13.828 18.7125 14.1499 18.4282C14.4734 18.1438 15.278 16.9282 16.0187 15.0282C16.7593 13.1282 17.2905 11.4766 17.2718 9.71099C17.253 7.94536 16.314 6.96724 16.314 6.96724C16.314 6.96724 13.939 8.30005 9.93273 8.20474C5.92648 8.10942 3.80929 6.82349 3.80929 6.82349Z" fill="#E07F14"/>
<path d="M9.85151 17.5969C13.5546 17.6625 15.3343 16.6078 15.3343 16.6078C15.3343 16.6078 15.7015 15.8078 15.9218 15.2828C16.15 14.7344 16.4531 13.875 16.4531 13.875C16.4531 13.875 15.014 15.1656 9.84526 15.1875C5.70151 15.2047 3.43433 13.7891 3.43433 13.7891C3.43433 13.7891 3.8062 14.7641 4.12495 15.3688C4.57495 16.2219 4.86401 16.725 4.86401 16.725C4.86401 16.725 6.69839 17.5422 9.85151 17.5969Z" fill="#AC5811"/>
<path d="M7.88754 4.45162C7.92035 4.18131 7.77348 3.25943 5.92504 3.36724C3.93441 3.48287 4.08285 5.03287 4.17816 5.33131C4.41098 6.06881 4.83754 6.27506 4.86254 6.66256C4.8891 7.05006 4.56566 7.95474 4.50004 9.53287C4.43441 11.111 4.5891 11.8469 4.64223 12.0657C4.74223 12.4751 5.04223 12.7376 5.36566 12.5313C5.6891 12.3251 5.53441 11.7172 5.49535 11.3547C5.45629 10.9922 5.48754 9.3485 5.60473 8.72818C5.72035 8.10787 5.86254 7.70943 6.23754 7.81412C6.61254 7.91881 6.49223 8.44693 6.46566 8.88599C6.4391 9.32506 6.4266 10.1657 6.47816 10.5797C6.52973 10.9938 6.74691 11.2454 7.09535 11.2251C7.56254 11.1985 7.66723 10.8251 7.69223 10.2047C7.71879 9.58443 7.67973 9.15787 7.78285 8.55006C7.88598 7.94225 8.18285 7.63287 8.41566 7.51568C8.64848 7.40006 9.17816 7.30943 9.97973 7.33443C10.7813 7.35943 11.4141 7.41256 11.6594 7.76099C11.9047 8.10943 11.9829 8.95006 12.4344 9.286C12.8875 9.62193 13.4032 9.286 13.5719 9.64849C13.7407 10.011 13.8438 10.8641 13.8563 11.8594C13.8688 12.8547 13.7532 14.1469 13.675 14.7032C13.5969 15.2594 13.4063 16.0469 13.6625 16.4485C13.861 16.7579 14.2954 16.6938 14.4891 16.3063C14.6829 15.9188 14.8 15.0657 14.8891 14.0829C14.9797 13.1001 15.0188 9.9985 15.0579 9.6235C15.0969 9.2485 15.3735 8.40318 15.7688 7.16724C16.1985 5.82193 16.6875 4.73756 15.6891 4.12975C15.1563 3.80475 14.8235 3.85318 14.8235 3.85318L13.8469 4.83131C13.8469 4.83131 14.4032 4.92193 14.3985 5.13599C14.3922 5.50787 12.0204 5.83912 10.3907 5.86568C8.76098 5.89225 6.49379 5.57506 6.49379 5.16099C6.49379 4.74693 7.82191 4.98131 7.88754 4.45162Z" fill="#FFB803"/>
<path d="M14.6171 4.37187C14.4953 4.62812 14.7703 4.67812 14.8031 4.87031C14.8343 5.06249 14.7265 5.36249 14.8546 5.39374C14.9828 5.42499 15.5062 5.24687 15.3906 4.69062C15.275 4.13437 14.6968 4.20156 14.6171 4.37187Z" fill="white"/>
<path d="M12.3359 7.46254C12.1749 7.50161 12.1812 7.99692 12.4062 8.44692C12.6546 8.94536 13.064 8.95161 13.1593 8.78598C13.2546 8.62036 12.9937 8.44692 12.8202 8.14067C12.5655 7.68598 12.4952 7.42504 12.3359 7.46254Z" fill="white"/>
<path d="M6.22339 5.81411C6.09839 6.02193 6.36401 6.3563 7.07339 6.56099C7.78276 6.76568 8.15308 6.62505 8.17183 6.36255C8.18745 6.14849 7.57808 6.10005 7.20151 5.99224C6.82339 5.88443 6.39526 5.52661 6.22339 5.81411Z" fill="white"/>
<path d="M5.66099 3.6547C5.46881 3.54845 4.7985 3.60314 4.72818 4.19689C4.6735 4.65626 5.25943 5.37658 5.60318 5.16095C5.80787 5.03283 5.45006 4.66251 5.55162 4.35626C5.63443 4.11095 5.92974 3.80158 5.66099 3.6547Z" fill="white"/>
<path d="M6.77185 10.086C6.57028 10.1219 6.59684 10.5391 6.64216 10.6907C6.68747 10.8422 6.78435 11.086 7.02185 11.025C7.2031 10.9782 7.17966 10.6797 7.1406 10.5047C7.09997 10.3282 6.99685 10.0453 6.77185 10.086Z" fill="#FFFCFF"/>
<path d="M4.9046 11.5891C4.7046 11.6156 4.71085 11.8188 4.77022 12.0688C4.81241 12.2485 4.9546 12.4547 5.12491 12.4094C5.29522 12.3641 5.26085 12.1313 5.21085 11.961C5.16554 11.8125 5.11397 11.561 4.9046 11.5891Z" fill="#FFFCFF"/>
<path d="M13.9921 15.3031C13.7796 15.3141 13.7953 15.5844 13.7874 15.8516C13.7796 16.1187 13.7749 16.3141 13.9687 16.3141C14.164 16.3141 14.1546 15.9594 14.1593 15.7953C14.164 15.6312 14.2187 15.2922 13.9921 15.3031Z" fill="white"/>
</svg>
