<svg width="26" height="22" viewBox="0 0 26 22" fill="none" xmlns="http://www.w3.org/2000/svg">
<path d="M11.2508 20.3491C11.2503 20.8304 11.3714 21.304 11.6029 21.7259H2.83376C2.30359 21.7247 1.7955 21.5135 1.42061 21.1386C1.04573 20.7637 0.834564 20.2556 0.833313 19.7255V16.7256C0.837062 15.4006 1.36508 14.1309 2.30201 13.194C3.23894 12.2571 4.50862 11.729 5.83363 11.7253H14.4827C14.6659 12.3378 14.9644 12.9096 15.3622 13.41C14.2126 13.6075 13.1698 14.2047 12.4176 15.0961C11.6654 15.9876 11.2521 17.116 11.2508 18.2824V20.3491ZM10.3334 10.2254C9.32292 10.2254 8.3351 9.9257 7.49489 9.36429C6.65467 8.80288 5.99981 8.00492 5.6131 7.07133C5.22639 6.13773 5.12521 5.11043 5.32235 4.11933C5.5195 3.12823 6.00611 2.21785 6.72065 1.50331C7.43519 0.788763 8.34557 0.302153 9.33667 0.105011C10.3278 -0.0921307 11.3551 0.00904984 12.2887 0.395758C13.2223 0.782465 14.0202 1.43733 14.5816 2.27754C15.143 3.11776 15.4427 4.10558 15.4427 5.1161C15.4427 6.47116 14.9044 7.77072 13.9462 8.72889C12.9881 9.68706 11.6885 10.2254 10.3334 10.2254ZM25.8333 20.3491C25.8321 20.7139 25.6866 21.0634 25.4287 21.3213C25.1708 21.5792 24.8213 21.7247 24.4565 21.7259H14.1275C13.7627 21.7247 13.4133 21.5792 13.1553 21.3213C12.8974 21.0634 12.752 20.7139 12.7507 20.3491V18.2824C12.7536 17.3704 13.1172 16.4966 13.7621 15.8518C14.4069 15.2069 15.2807 14.8433 16.1927 14.8404H22.3898C23.3017 14.8433 24.1755 15.2069 24.8204 15.8518C25.4653 16.4966 25.8288 17.3704 25.8317 18.2824L25.8333 20.3491ZM22.8098 10.2885C22.8098 10.9843 22.6034 11.6644 22.2169 12.2429C21.8304 12.8214 21.281 13.2722 20.6382 13.5385C19.9954 13.8047 19.2881 13.8744 18.6057 13.7387C17.9234 13.6029 17.2966 13.2679 16.8046 12.7759C16.3126 12.284 15.9776 11.6572 15.8419 10.9748C15.7061 10.2924 15.7758 9.58511 16.042 8.94233C16.3083 8.29954 16.7592 7.75015 17.3377 7.36361C17.9161 6.97708 18.5963 6.77076 19.292 6.77076C20.225 6.77076 21.1197 7.14138 21.7794 7.80109C22.4391 8.46079 22.8098 9.35555 22.8098 10.2885Z" fill="white"/>
</svg>
