<svg width="31" height="30" viewBox="0 0 31 30" fill="none" xmlns="http://www.w3.org/2000/svg">
<path d="M15.4832 19.6953C12.956 19.6953 10.905 17.6443 10.905 15.1172C10.905 12.5901 12.956 10.5391 15.4832 10.5391C18.0103 10.5391 20.0613 12.5901 20.0613 15.1172C20.0613 17.6443 18.0103 19.6953 15.4832 19.6953ZM15.4832 12.3703C13.9693 12.3703 12.7363 13.6034 12.7363 15.1172C12.7363 16.631 13.9693 17.8641 15.4832 17.8641C16.997 17.8641 18.23 16.631 18.23 15.1172C18.23 13.6034 16.997 12.3703 15.4832 12.3703Z" fill="#969696"/>
<path d="M19.402 27.5576C19.1456 27.5576 18.8893 27.5209 18.6329 27.4599C17.876 27.2524 17.2411 26.7762 16.8383 26.1048L16.6918 25.8606C15.9715 24.6154 14.9826 24.6154 14.2623 25.8606L14.128 26.0926C13.7252 26.7762 13.0903 27.2646 12.3334 27.4599C11.5643 27.6674 10.7707 27.5576 10.0993 27.1547L7.99944 25.9461C7.25473 25.5188 6.71757 24.8229 6.48561 23.9805C6.26586 23.1382 6.37573 22.2714 6.80302 21.5267C7.15707 20.904 7.25473 20.3424 7.04719 19.9884C6.83965 19.6344 6.31469 19.4268 5.5944 19.4268C3.81198 19.4268 2.35919 17.974 2.35919 16.1916V14.0429C2.35919 12.2605 3.81198 10.8077 5.5944 10.8077C6.31469 10.8077 6.83965 10.6002 7.04719 10.2462C7.25473 9.89211 7.16927 9.33053 6.80302 8.7079C6.37573 7.96319 6.26586 7.08419 6.48561 6.25403C6.70536 5.41165 7.24253 4.71578 7.99944 4.28849L10.1115 3.07986C11.491 2.2619 13.3101 2.73803 14.1402 4.14198L14.2867 4.38615C15.007 5.6314 15.9959 5.6314 16.7162 4.38615L16.8505 4.15419C17.6806 2.73803 19.4997 2.2619 20.8914 3.09207L22.9913 4.30069C23.736 4.72799 24.2731 5.42386 24.5051 6.26623C24.7249 7.10861 24.615 7.9754 24.1877 8.72011C23.8336 9.34274 23.736 9.90432 23.9435 10.2584C24.1511 10.6124 24.676 10.8199 25.3963 10.8199C27.1787 10.8199 28.6315 12.2727 28.6315 14.0552V16.2038C28.6315 17.9862 27.1787 19.439 25.3963 19.439C24.676 19.439 24.1511 19.6466 23.9435 20.0006C23.736 20.3547 23.8214 20.9162 24.1877 21.5389C24.615 22.2836 24.7371 23.1626 24.5051 23.9927C24.2854 24.8351 23.7482 25.531 22.9913 25.9583L20.8792 27.1669C20.4153 27.4233 19.9148 27.5576 19.402 27.5576ZM15.4831 23.0405C16.5697 23.0405 17.583 23.7242 18.2789 24.9328L18.4131 25.1647C18.5596 25.4211 18.8038 25.6042 19.0968 25.6775C19.3898 25.7507 19.6828 25.7141 19.927 25.5676L22.039 24.3468C22.3564 24.1637 22.6006 23.8584 22.6983 23.4922C22.7959 23.1259 22.7471 22.7475 22.564 22.4301C21.8681 21.2337 21.7826 20.0006 22.3198 19.0606C22.857 18.1205 23.9679 17.5834 25.3597 17.5834C26.141 17.5834 26.7636 16.9607 26.7636 16.1794V14.0307C26.7636 13.2616 26.141 12.6268 25.3597 12.6268C23.9679 12.6268 22.857 12.0896 22.3198 11.1496C21.7826 10.2095 21.8681 8.97648 22.564 7.78007C22.7471 7.46265 22.7959 7.08419 22.6983 6.71794C22.6006 6.35169 22.3686 6.05869 22.0512 5.86336L19.9392 4.65473C19.4142 4.33732 18.7184 4.52044 18.4009 5.05761L18.2666 5.28957C17.5708 6.49819 16.5575 7.18186 15.4709 7.18186C14.3844 7.18186 13.3711 6.49819 12.6752 5.28957L12.5409 5.0454C12.2357 4.53265 11.5521 4.34953 11.0271 4.65473L8.91507 5.87557C8.59765 6.05869 8.35348 6.3639 8.25582 6.73015C8.15815 7.0964 8.20698 7.47486 8.39011 7.79228C9.08598 8.98869 9.17144 10.2217 8.63427 11.1618C8.09711 12.1018 6.98615 12.639 5.5944 12.639C4.81307 12.639 4.19044 13.2616 4.19044 14.0429V16.1916C4.19044 16.9607 4.81307 17.5956 5.5944 17.5956C6.98615 17.5956 8.09711 18.1327 8.63427 19.0728C9.17144 20.0128 9.08598 21.2459 8.39011 22.4423C8.20698 22.7597 8.15815 23.1382 8.25582 23.5044C8.35348 23.8707 8.58544 24.1637 8.90286 24.359L11.0149 25.5676C11.2713 25.7263 11.5765 25.7629 11.8573 25.6897C12.1503 25.6164 12.3944 25.4211 12.5532 25.1647L12.6874 24.9328C13.3833 23.7364 14.3966 23.0405 15.4831 23.0405Z" fill="#969696"/>
</svg>
